<svg width="124" height="18" viewBox="0 0 124 18" fill="none" xmlns="http://www.w3.org/2000/svg">
<path d="M15.0653 0.045454V17.5H12.2528L4.02841 5.6108H3.88352V17.5H0.721591V0.045454H3.55114L11.767 11.9432H11.9205V0.045454H15.0653ZM24.1697 17.7557C22.8572 17.7557 21.7237 17.483 20.7692 16.9375C19.8203 16.3864 19.0902 15.608 18.5788 14.6023C18.0675 13.5909 17.8118 12.4006 17.8118 11.0312C17.8118 9.68466 18.0675 8.50284 18.5788 7.4858C19.0959 6.46307 19.8175 5.66761 20.7436 5.09943C21.6697 4.52557 22.7578 4.23864 24.0078 4.23864C24.8146 4.23864 25.576 4.36932 26.2919 4.63068C27.0135 4.88636 27.6499 5.28409 28.201 5.82386C28.7578 6.36364 29.1953 7.05114 29.5135 7.88636C29.8317 8.71591 29.9908 9.70455 29.9908 10.8523V11.7983H19.2607V9.71875H27.0334C27.0277 9.12784 26.8999 8.60227 26.6499 8.14205C26.3999 7.67614 26.0504 7.30966 25.6016 7.04261C25.1584 6.77557 24.6413 6.64205 24.0504 6.64205C23.4197 6.64205 22.8658 6.79545 22.3885 7.10227C21.9112 7.40341 21.5391 7.80114 21.272 8.29545C21.0107 8.78409 20.8771 9.32102 20.8714 9.90625V11.7216C20.8714 12.483 21.0107 13.1364 21.2891 13.6818C21.5675 14.2216 21.9567 14.6364 22.4567 14.9261C22.9567 15.2102 23.5419 15.3523 24.2124 15.3523C24.6612 15.3523 25.0675 15.2898 25.4311 15.1648C25.7947 15.0341 26.1101 14.8438 26.3771 14.5938C26.6442 14.3438 26.8459 14.0341 26.9822 13.6648L29.8629 13.9886C29.6811 14.75 29.3345 15.4148 28.8232 15.983C28.3175 16.5455 27.6697 16.983 26.88 17.2955C26.0902 17.6023 25.1868 17.7557 24.1697 17.7557ZM40.9446 11.9943V4.40909H44.0298V17.5H41.0384V15.1733H40.902C40.6065 15.9062 40.1207 16.5057 39.4446 16.9716C38.7741 17.4375 37.9474 17.6705 36.9645 17.6705C36.1065 17.6705 35.348 17.4801 34.6889 17.0994C34.0355 16.7131 33.5241 16.1534 33.1548 15.4205C32.7855 14.6818 32.6009 13.7898 32.6009 12.7443V4.40909H35.6861V12.267C35.6861 13.0966 35.9134 13.7557 36.3679 14.2443C36.8224 14.733 37.419 14.9773 38.1577 14.9773C38.6122 14.9773 39.0526 14.8665 39.4787 14.6449C39.9048 14.4233 40.2543 14.0938 40.527 13.6562C40.8054 13.2131 40.9446 12.6591 40.9446 11.9943ZM47.2024 17.5V4.40909H50.1939V6.59091H50.3303C50.5689 5.83523 50.978 5.25284 51.5575 4.84375C52.1428 4.42898 52.8104 4.22159 53.5604 4.22159C53.7308 4.22159 53.9212 4.23011 54.1314 4.24716C54.3473 4.25852 54.5263 4.27841 54.6683 4.30682V7.14489C54.5376 7.09943 54.3303 7.05966 54.0462 7.02557C53.7678 6.9858 53.4979 6.96591 53.2365 6.96591C52.674 6.96591 52.1683 7.08807 51.7195 7.33239C51.2763 7.57102 50.9268 7.90341 50.6712 8.32955C50.4155 8.75568 50.2876 9.24716 50.2876 9.80398V17.5H47.2024ZM60.2507 17.7642C59.4212 17.7642 58.674 17.6165 58.0092 17.321C57.3501 17.0199 56.8274 16.5767 56.4411 15.9915C56.0604 15.4062 55.87 14.6847 55.87 13.8267C55.87 13.0881 56.0064 12.4773 56.2791 11.9943C56.5518 11.5114 56.924 11.125 57.3956 10.8352C57.8672 10.5455 58.3984 10.3267 58.9893 10.179C59.5859 10.0256 60.2024 9.91477 60.8388 9.84659C61.6058 9.76705 62.228 9.69602 62.7053 9.63352C63.1825 9.56534 63.5291 9.46307 63.745 9.3267C63.9666 9.18466 64.0774 8.96591 64.0774 8.67045V8.61932C64.0774 7.97727 63.8871 7.48011 63.5064 7.12784C63.1257 6.77557 62.5774 6.59943 61.8615 6.59943C61.1058 6.59943 60.5064 6.7642 60.0632 7.09375C59.6257 7.4233 59.3303 7.8125 59.1768 8.26136L56.2962 7.85227C56.5234 7.05682 56.8984 6.39205 57.4212 5.85795C57.9439 5.31818 58.5831 4.91477 59.3388 4.64773C60.0945 4.375 60.9297 4.23864 61.8445 4.23864C62.4751 4.23864 63.103 4.3125 63.728 4.46023C64.353 4.60795 64.924 4.85227 65.4411 5.19318C65.9581 5.52841 66.3729 5.9858 66.6854 6.56534C67.0036 7.14489 67.1626 7.86932 67.1626 8.73864V17.5H64.1967V15.7017H64.0945C63.907 16.0653 63.6428 16.4062 63.3018 16.7244C62.9666 17.0369 62.5433 17.2898 62.032 17.483C61.5263 17.6705 60.9325 17.7642 60.2507 17.7642ZM61.0518 15.4972C61.6712 15.4972 62.2081 15.375 62.6626 15.1307C63.1172 14.8807 63.4666 14.5511 63.7109 14.142C63.9609 13.733 64.0859 13.2869 64.0859 12.804V11.2614C63.9893 11.3409 63.8246 11.4148 63.5916 11.483C63.3643 11.5511 63.1087 11.6108 62.8246 11.6619C62.5405 11.7131 62.2592 11.7585 61.9808 11.7983C61.7024 11.8381 61.4609 11.8722 61.2564 11.9006C60.7962 11.9631 60.3842 12.0653 60.0206 12.2074C59.657 12.3494 59.37 12.5483 59.1598 12.804C58.9496 13.054 58.8445 13.3778 58.8445 13.7756C58.8445 14.3438 59.0518 14.7727 59.4666 15.0625C59.8814 15.3523 60.4098 15.4972 61.0518 15.4972ZM73.3501 0.045454V17.5H70.2649V0.045454H73.3501ZM95.9375 2.068C95.0735 2.164 94.7135 2.26 94.3055 2.5C93.7775 2.812 93.2495 3.7 92.7695 5.14L88.4975 17.764H88.1135L82.7135 4.564L79.5455 13.972C78.7295 16.396 78.8975 16.948 80.6015 17.044L80.4335 17.5H75.2015L75.3455 17.044C77.2415 16.9 77.7455 16.444 78.5615 13.972L82.1375 3.388C81.6335 2.26 81.3935 2.068 80.4335 2.068L80.5775 1.612H84.3935L89.0495 13.228L91.7855 5.14C92.2895 3.652 92.3855 2.788 92.0495 2.452C91.7855 2.236 91.4975 2.14 90.6815 2.068L90.8495 1.612H96.0815L95.9375 2.068ZM102.064 12.172C101.032 15.316 98.2961 17.74 95.7041 17.74C93.1121 17.74 91.9601 15.436 92.9681 12.34C94.0001 9.196 96.5681 6.988 99.2321 6.988C101.848 6.988 103.048 9.172 102.064 12.172ZM99.9521 12.964C100.984 9.844 100.504 7.66 98.7761 7.66C97.3121 7.66 95.8961 9.076 95.1761 11.236C94.6481 12.844 94.4561 14.428 94.6481 15.604C94.7681 16.516 95.3681 17.068 96.1601 17.068C97.6961 17.068 99.1121 15.532 99.9521 12.964ZM106.782 14.932C108.126 12.916 109.47 10.924 110.814 8.908C110.886 8.764 111.102 8.668 111.198 8.524C112.302 7.252 112.638 6.988 113.262 6.988C113.886 6.988 114.222 7.324 114.174 7.948C114.126 8.404 113.79 8.74 113.43 8.74C113.262 8.74 113.046 8.692 112.806 8.524C112.59 8.38 112.374 8.332 112.254 8.332C112.062 8.332 111.822 8.548 111.462 8.98V9.172C109.734 11.692 107.982 14.188 106.23 16.708C105.654 17.548 105.39 17.836 105.27 17.836C105.054 17.836 105.102 17.068 105.102 16.756L104.766 10.252L104.694 8.428C104.694 8.26 104.598 8.092 104.43 8.092C104.238 8.092 103.806 8.308 103.494 8.668L102.51 9.868L102.27 9.604C103.638 7.66 104.502 6.988 105.51 6.988C106.134 6.988 106.518 7.276 106.542 7.876L106.614 9.052L106.782 14.932ZM120.063 6.82C120.279 6.556 120.735 6.436 121.047 6.436C122.007 6.436 122.607 7.276 123.327 9.556L123.015 9.796L122.391 8.572C122.223 8.236 121.887 8.02 121.719 8.02C121.551 8.02 121.431 8.26 121.407 8.404L121.767 7.228L119.271 14.812C119.127 15.244 118.911 16.084 118.839 16.3C118.815 16.468 118.983 16.636 119.151 16.636C119.367 16.636 119.751 16.42 120.087 16.036L121.071 14.86L121.335 15.124C119.967 17.068 119.103 17.764 118.095 17.764C117.279 17.764 116.967 17.116 117.111 16.156C116.055 17.26 115.143 17.74 113.991 17.74C111.735 17.74 110.847 15.748 111.807 12.82C112.863 9.58 115.599 6.988 117.951 6.988C118.767 6.988 119.271 7.276 119.799 8.02L120.063 6.82ZM117.447 15.148L119.175 9.94C119.559 8.74 118.911 7.66 117.831 7.66C116.271 7.66 114.711 9.34 113.871 11.908C112.959 14.692 113.463 16.492 115.167 16.492C115.767 16.492 116.367 16.276 116.871 15.82C117.159 15.58 117.375 15.316 117.447 15.148Z" fill="white"/>
</svg>
